<?xml version="1.0" encoding="UTF-8"?>
<svg width="21px" height="24px" viewBox="0 0 21 24" version="1.1" xmlns="http://www.w3.org/2000/svg" xmlns:xlink="http://www.w3.org/1999/xlink">
    <title>CACA7BDB-E012-4513-9595-720142A6A9C6-black</title>
    <g id="New-registro" stroke="none" stroke-width="1" fill="none" fill-rule="evenodd">
        <g id="Sign-up-II---3" transform="translate(-864.000000, -612.000000)" fill="#0B0B0A">
            <g id="Group-15" transform="translate(751.000000, 493.000000)">
                <g id="Group-12" transform="translate(113.500000, 119.000000)">
                    <g id="Apple/Black" transform="translate(-0.000000, 0.000000)">
                        <g transform="translate(-0.000000, 0.000000)" id="Apple">
                            <path d="M13.5873676,3.8962495 C14.3700886,2.88584941 14.9634415,1.45774203 14.7488245,0 C13.4695386,0.0889039183 11.974233,0.907384436 11.1017376,1.97423146 C10.3063921,2.94088517 9.65272194,4.37887077 9.90801802,5.77452117 C11.3065356,5.81826754 12.7499403,4.9800306 13.5873676,3.8962495 L13.5873676,3.8962495 Z M20.5,17.6086205 C19.9403124,18.8560977 19.6709891,19.4135112 18.9499881,20.5184599 C17.9442337,22.0608723 16.526078,23.9814792 14.7670599,23.9955909 C13.2058262,24.012525 12.8032439,22.9724902 10.6837253,22.9851908 C8.56420677,22.9964802 8.12234817,24.0153473 6.55830898,23.9998244 C4.80069364,23.9843015 3.45688239,22.2513807 2.45112805,20.7089683 C-0.362739767,16.399245 -0.658714896,11.3401887 1.07645683,8.64908119 C2.31085547,6.73835254 4.25783878,5.62070328 6.08699313,5.62070328 C7.94841018,5.62070328 9.11968616,6.64803744 10.6612817,6.64803744 C12.1565874,6.64803744 13.0669564,5.61788093 15.2201404,5.61788093 C16.8501077,5.61788093 18.576863,6.51115363 19.8056508,8.05215488 C15.7770225,10.2733417 16.4292899,16.0605634 20.5,17.6086205 L20.5,17.6086205 Z"></path>
                        </g>
                    </g>
                </g>
            </g>
        </g>
    </g>
</svg>