<svg xmlns="http://www.w3.org/2000/svg" viewBox="0 0 839 168.1"><path d="M310.2 10.4C297.5 3.5 283.5.1 268.3.1s-29.2 3.4-41.9 10.3-22.9 16.8-30.5 29.8c-7.6 13-11.4 27.8-11.4 44.4 0 16.5 3.8 31.1 11.4 43.9 7.6 12.8 17.8 22.6 30.5 29.4s26.7 10.2 41.9 10.2 29.2-3.4 41.9-10.1c12.7-6.7 23-16.5 30.7-29.4 7.7-12.8 11.6-27.5 11.6-44s-3.9-31.3-11.6-44.3c-7.7-13.1-17.9-23.1-30.7-29.9zm-15.8 101c-7 6.9-15.7 10.3-26.1 10.3-10.1 0-18.7-3.4-25.7-10.3s-10.5-15.8-10.5-26.8c0-10.7 3.5-19.6 10.5-26.4 7-6.9 15.6-10.3 25.7-10.3 10.2 0 18.9 3.5 26 10.3 7.1 6.9 10.6 15.7 10.6 26.4 0 11-3.5 19.9-10.5 26.8zm533-71.2c-7.7-13-17.9-23-30.7-29.9C784 3.4 770 0 754.8 0s-29.2 3.4-41.9 10.3-22.9 16.8-30.5 29.8S671 67.9 671 84.5c0 16.5 3.8 31.1 11.4 43.9 7.6 12.8 17.8 22.6 30.5 29.4s26.7 10.2 41.9 10.2 29.2-3.4 41.9-10.1c12.7-6.8 23-16.5 30.7-29.4 7.7-12.8 11.6-27.5 11.6-44-.1-16.5-3.9-31.2-11.6-44.3zm-46.5 71.2c-7 6.9-15.7 10.3-26.1 10.3-10.1 0-18.7-3.4-25.7-10.3s-10.5-15.8-10.5-26.8c0-10.7 3.5-19.6 10.5-26.4 7-6.9 15.6-10.3 25.7-10.3 10.2 0 18.9 3.5 26 10.3 7.1 6.9 10.6 15.7 10.6 26.4 0 11-3.5 19.9-10.5 26.8zM94.8 2.4c-9.6 0-21 2.1-31.5 10.9 0 0-7.4 6.6-9.7 8.4-4.3 3.6-7.9 3.3-7.9 3.3s-3.6.3-7.8-3.4L20.1 6.2c-.8-.7-2.1-1.7-2.3-1.8h-.1c-1.8-1.3-4-2-6.4-2C5 2.4 0 7.5 0 13.7V165.4h48.1V80.6c0-22 10-33 29.8-33 8.5 0 15.3 2.7 20.4 8.3 5.1 5.6 7.7 13.6 7.7 24v85.5h48.2V71.1c0-22.6-5.2-39.7-15.7-51.3s-25-17.4-43.7-17.4zm487 .1h-.5c-9.5.1-20.7 2.2-31 10.9 0 0-7.4 6.6-9.7 8.4-.3.2-.6.5-.9.7-3.9 2.8-7.1 2.6-7.1 2.6s-3.6.2-7.9-3.3l-5.8-5c-10.2-9.5-23.6-14.2-40.5-14.2-9.6 0-21.1 2-31.5 10.9 0 0-7.4 6.6-9.7 8.4-4.3 3.5-7.9 3.3-7.9 3.3s-3.6.3-7.9-3.3L403.6 6.5c-.8-.7-2.1-1.7-2.3-1.8h-.1c-1.8-1.3-4-2-6.4-2-6.2 0-11.3 5-11.3 11.3v151.8h48.2V81c0-22 9.9-33 29.8-33 19.7 0 27.9 11 27.9 33l-.1 84.8h45.5V81c0-22 9.9-33 29.8-33 8.5 0 15.3 2.8 20.4 8.3 5.1 5.5 7.7 13.5 7.7 24v85.5h48.2V71.5c-.2-22.9-5.4-39.9-15.9-51.6-10.5-11.6-24.5-17.4-43.2-17.4z"/></svg>